					<svg class="topLogo" id="Layer_1" data-name="Layer 1" xmlns="http://www.w3.org/2000/svg" viewBox="0 0 2442.28 449.71">
                        <defs>
                            <style>.cls-2{stroke-width:20px;}.cls-2,.cls-3,.cls-4{stroke-miterlimit:10;}.cls-3{font-size:88px;}.cls-3,.cls-4{stroke-width:5px;font-family:Georgia, Georgia;}.cls-4{font-size:91px;}</style>
                        </defs>
                        <title>Artboard 1</title>
                        <path class="cls-1" d="M383.27,46.08h70.31V310H383.27ZM490.48,310V46.08H683.84V97.24h-123v54.45H674v51.17H560.79v55.91h123V310Zm232.76,0V46.08H916.54V97.24h-123v54.45H906.69v51.17H793.53v55.91h123V310Zm232.68,0V46.08h193.36V97.24h-123v54.45h113.17v51.17H1026.27v55.91h123V310H955.92ZM160.4,204.5c-.93,18.63-1.16,35.88-2.48,54.56,7.09.67,15.1,1.31,22.66.17l-2.26-52.07-.4-2.48a116.87,116.87,0,0,1-17.52-.18Zm-44.31-52.32c-8.74,4.55-21.59,11.43-20.18,23.89,1.87,6.8,9,11.2,14.56,14,31,14.19,72.13,14.68,104.84,4.08,8.08-3.24,18.92-7.93,20.4-18.22-.09-8.5-8.74-13.85-15-17.1v-.4a26.89,26.89,0,0,1,6.91-1.94v-.23c-11-2-21.54-5-32.15-7.94,2,4.84,3.52,9.95,5.22,15a56.24,56.24,0,0,1,9.9-2.36c5.6,2.27,13.61,5.51,14.41,12.78.62,6.8-6.54,10.12-11.06,12.88-24,9.08-51,10-76,3.06-6.91-2.26-16.89-5.17-17.75-14.32,4.91-12,17.6-14.55,28.2-17.48-5.45-3.65-11-6.88-16.27-10.94-5.7.33-10.91,2.92-16.05,5.25Zm53-72.69L166,89.86l-15.58,46.39c3.9.41,8.73,0,12.56.41V137l-2.28,52.47.39.55c5,.51,11.21.77,16.29-.13v-.83l-2-50.89.31-1.72,13.71-.24c-6.84-18.78-13.47-37.74-19.85-56.75h-.4Zm-7.24-23.31c11.46-8.12,21.74,3.23,30.62,9.72,34.33,28.73,66.73,61.62,91.43,98.75,3.11,4.79,4.52,12.23,1.73,17.65-6.4,11.1-15,21.23-23.22,31.51v.56c-20.41,22.59-42,45.81-65.27,64.94-11.37,7.19-21.8,22.9-36.45,13.17-33.34-25.33-65.25-56.82-92.3-90.6-4.59-7.43-11.75-13.51-14.94-21.93-4.45-11.4,5.36-19.59,11-28.18,27.58-35.36,61.83-70,97.43-95.6Zm28.74-33.77L177.92,3.72c-1.56-1-3.49-2.62-5.22-3.1C169-1.07,164.92,1,161.87,3.38l-23,31.09c-36.84,47.43-80.46,91.73-128,125.68-3.76,3.05-9.35,6-10.52,11.07-1.25,4.53,1,8.27,3.73,11.08a633.09,633.09,0,0,1,107,96.61c5.76,6.29,10.42,12.54,16.05,18.44,9.48,13.12,20.62,26.34,29.34,40.42,2.73,3,3.2,7.85,7.48,9.3,3.35,1.2,7.48,2,10.67,0l3.17-3.31A648.81,648.81,0,0,1,323,191.46c5.59-5.19,16.27-7.12,16.42-16.76a15.42,15.42,0,0,0-6.56-11.25l-.91-.16a569.33,569.33,0,0,1-80.77-69.4L223.33,63.61C212,50.59,201.05,36.17,190.61,22.41ZM157.75,49c11.21-9.07,25.31-1.54,34.74,6.8a340.45,340.45,0,0,1,29.19,25.83l1.64,1c25,24.12,48.23,50.92,67.3,79.26,3.09,4.93,5.83,10.52,4.1,17.06-6.36,16.53-19.29,29.71-30.59,44.15-24.45,27.36-50.25,53.84-79.12,75-5.84,4.29-13.72,8.26-20.72,4.85-21.26-11.57-39.18-30.51-57.78-47.78-21.58-20.8-43.23-45-59.58-70.34-2.43-3.55-3.12-7.94-3-12.63,2.1-8.74,7.87-15.94,13.32-23.31,19.32-25.6,43-49.88,66.89-72.06a18.09,18.09,0,0,1,2.44-2.35C136.8,65.24,147,57.07,157.75,49Z"/>
                        <line class="cls-2" x1="1181.27" x2="1181.27" y2="426"/>
                        <text class="cls-3" transform="translate(461.21 420.53)">Student Branch</text>
                        <text class="cls-4" transform="translate(1214.27 199.2)">Indian Institute of Technology
                            <tspan x="0" y="109.2">Patna</tspan>
                        </text>
                    </svg>