<?xml version="1.0" encoding="utf-8"?>
<svg version="1.1" id="Layer_1" xmlns="http://www.w3.org/2000/svg" xmlns:xlink="http://www.w3.org/1999/xlink" x="0px" y="0px"
	 viewBox="0 0 2442.3 449.7" style="enable-background:new 0 0 2442.3 449.7;" xml:space="preserve">
<style type="text/css">
	.st0{fill:#1A1918;}
	.st1{fill:none;stroke:#000000;stroke-width:20;stroke-miterlimit:10;}
	.st2{fill:none;}
	.st3{stroke:#000000;stroke-width:5;stroke-miterlimit:10;}
	.st4{font-family:'Georgia';}
	.st5{font-size:88px;}
	.st6{font-size:91px;}
</style>
<path class="st0" d="M383.3,46.1h70.3V310h-70.3V46.1z M490.5,310V46.1h193.4v51.2h-123v54.4H674v51.2H560.8v55.9h123V310H490.5z
	 M723.2,310V46.1h193.3v51.2h-123v54.4h113.2v51.2H793.5v55.9h123V310H723.2z M955.9,310V46.1h193.4v51.2h-123v54.4h113.2v51.2
	h-113.2v55.9h123V310H955.9L955.9,310z M160.4,204.5c-0.9,18.6-1.2,35.9-2.5,54.6c7.1,0.7,15.1,1.3,22.7,0.2l-2.3-52.1l-0.4-2.5
	C172.2,204.9,166.7,205.1,160.4,204.5L160.4,204.5z M116.1,152.2c-8.7,4.6-21.6,11.4-20.2,23.9c1.9,6.8,9,11.2,14.6,14
	c31,14.2,72.1,14.7,104.8,4.1c8.1-3.2,18.9-7.9,20.4-18.2c-0.1-8.5-8.7-13.8-15-17.1v-0.4c2.2-0.9,4.7-1.7,6.9-1.9v-0.2
	c-11-2-21.5-5-32.2-7.9c2,4.8,3.5,9.9,5.2,15c3.2-1.1,6.5-1.9,9.9-2.4c5.6,2.3,13.6,5.5,14.4,12.8c0.6,6.8-6.5,10.1-11.1,12.9
	c-24,9.1-51,10-76,3.1c-6.9-2.3-16.9-5.2-17.7-14.3c4.9-12,17.6-14.6,28.2-17.5c-5.4-3.6-11-6.9-16.3-10.9
	C126.4,147.3,121.2,149.8,116.1,152.2L116.1,152.2z M169.1,79.5L166,89.9l-15.6,46.4c3.9,0.4,8.7,0,12.6,0.4v0.4l-2.3,52.5l0.4,0.6
	c5,0.5,11.2,0.8,16.3-0.1v-0.8l-2-50.9l0.3-1.7l13.7-0.2c-6.8-18.8-13.5-37.7-19.9-56.8H169.1L169.1,79.5z M161.9,56.2
	c11.5-8.1,21.7,3.2,30.6,9.7c34.3,28.7,66.7,61.6,91.4,98.8c3.1,4.8,4.5,12.2,1.7,17.7c-6.4,11.1-15,21.2-23.2,31.5v0.6
	c-20.4,22.6-42,45.8-65.3,64.9c-11.4,7.2-21.8,22.9-36.4,13.2c-33.3-25.3-65.3-56.8-92.3-90.6c-4.6-7.4-11.7-13.5-14.9-21.9
	c-4.5-11.4,5.4-19.6,11-28.2C92,116.4,126.3,81.7,161.9,56.2L161.9,56.2z M190.6,22.4L177.9,3.7c-1.6-1-3.5-2.6-5.2-3.1
	c-3.7-1.7-7.8,0.4-10.8,2.8l-23,31.1c-36.8,47.4-80.5,91.7-128,125.7c-3.8,3.1-9.4,6-10.5,11.1c-1.2,4.5,1,8.3,3.7,11.1
	c38.1,27.3,74.5,59.7,107,96.6c5.8,6.3,10.4,12.5,16.1,18.4c9.5,13.1,20.6,26.3,29.3,40.4c2.7,3,3.2,7.9,7.5,9.3
	c3.3,1.2,7.5,2,10.7,0l3.2-3.3c39.4-58.1,89.4-110.2,145.3-152.3c5.6-5.2,16.3-7.1,16.4-16.8c-0.4-4.4-2.9-8.8-6.6-11.3l-0.9-0.2
	c-28.7-20.3-55.5-43.3-80.8-69.4l-27.9-30.3C212,50.6,201.1,36.2,190.6,22.4z M157.8,49c11.2-9.1,25.3-1.5,34.7,6.8
	c9.9,7.8,20.2,16.7,29.2,25.8l1.6,1c25,24.1,48.2,50.9,67.3,79.3c3.1,4.9,5.8,10.5,4.1,17.1c-6.4,16.5-19.3,29.7-30.6,44.1
	c-24.5,27.4-50.2,53.8-79.1,75c-5.8,4.3-13.7,8.3-20.7,4.9c-21.3-11.6-39.2-30.5-57.8-47.8c-21.6-20.8-43.2-45-59.6-70.3
	c-2.4-3.6-3.1-7.9-3-12.6c2.1-8.7,7.9-15.9,13.3-23.3c19.3-25.6,43-49.9,66.9-72.1c0.6-0.6,1.6-1.8,2.4-2.4
	C136.8,65.2,147,57.1,157.8,49L157.8,49z"/>
<line class="st1" x1="1181.3" y1="0" x2="1181.3" y2="426"/>
<rect x="381.3" y="354" class="st2" width="768" height="72"/>
<text transform="matrix(1 0 0 1 461.2053 420.5286)" class="st3 st4 st5">Student Branch</text>
<rect x="1214.3" y="130.4" class="st2" width="1225.9" height="193.6"/>
<text transform="matrix(1 0 0 1 1214.2734 199.2028)"><tspan x="0" y="0" class="st3 st4 st6">Indian Institute of Technology</tspan><tspan x="0" y="109.2" class="st3 st4 st6">Patna</tspan></text>
</svg>
