<svg id="Layer_1" data-name="Layer 1" xmlns="http://www.w3.org/2000/svg" viewBox="0 0 339.54 348.34"><defs><style>.cls-1{fill:#1a1918;}</style></defs><title>ieeeLogo</title><path class="cls-1" d="M160.34,204.52c-.9,18.6-1.2,35.9-2.5,54.6,7.1.7,15.1,1.3,22.7.2l-2.3-52.1-.4-2.5a128.8,128.8,0,0,1-17.5-.2ZM116,152.22c-8.7,4.6-21.6,11.4-20.2,23.9,1.9,6.8,9,11.2,14.6,14,31,14.2,72.1,14.7,104.8,4.1,8.1-3.2,18.9-7.9,20.4-18.2-.1-8.5-8.7-13.8-15-17.1v-.4a25.42,25.42,0,0,1,6.9-1.9v-.2c-11-2-21.5-5-32.2-7.9,2,4.8,3.5,9.9,5.2,15a55,55,0,0,1,9.9-2.4c5.6,2.3,13.6,5.5,14.4,12.8.6,6.8-6.5,10.1-11.1,12.9-24,9.1-51,10-76,3.1-6.9-2.3-16.9-5.2-17.7-14.3,4.9-12,17.6-14.6,28.2-17.5-5.4-3.6-11-6.9-16.3-10.9-5.6.1-10.8,2.6-15.9,5Zm53-72.7-3.1,10.4-15.6,46.4c3.9.4,8.7,0,12.6.4v.4l-2.3,52.5.4.6c5,.5,11.2.8,16.3-.1v-.8l-2-50.9.3-1.7,13.7-.2c-6.8-18.8-13.5-37.7-19.9-56.8H169Zm-7.2-23.3c11.5-8.1,21.7,3.2,30.6,9.7,34.3,28.7,66.7,61.6,91.4,98.8,3.1,4.8,4.5,12.2,1.7,17.7-6.4,11.1-15,21.2-23.2,31.5v.6c-20.4,22.6-42,45.8-65.3,64.9-11.4,7.2-21.8,22.9-36.4,13.2-33.3-25.3-65.3-56.8-92.3-90.6-4.6-7.4-11.7-13.5-14.9-21.9-4.5-11.4,5.4-19.6,11-28.2,27.5-35.5,61.8-70.2,97.4-95.7Zm28.7-33.8-12.7-18.7c-1.6-1-3.5-2.6-5.2-3.1-3.7-1.7-7.8.4-10.8,2.8l-23,31.1c-36.8,47.4-80.5,91.7-128,125.7-3.8,3.1-9.4,6-10.5,11.1-1.2,4.5,1,8.3,3.7,11.1A638.71,638.71,0,0,1,111,279c5.8,6.3,10.4,12.5,16.1,18.4,9.5,13.1,20.6,26.3,29.3,40.4,2.7,3,3.2,7.9,7.5,9.3,3.3,1.2,7.5,2,10.7,0l3.2-3.3a646.92,646.92,0,0,1,145.3-152.3c5.6-5.2,16.3-7.1,16.4-16.8a15.71,15.71,0,0,0-6.6-11.3l-.9-.2a572.87,572.87,0,0,1-80.8-69.4l-27.9-30.3C211.94,50.62,201,36.22,190.54,22.42ZM157.74,49c11.2-9.1,25.3-1.5,34.7,6.8a322.62,322.62,0,0,1,29.2,25.8l1.6,1c25,24.1,48.2,50.9,67.3,79.3,3.1,4.9,5.8,10.5,4.1,17.1-6.4,16.5-19.3,29.7-30.6,44.1-24.5,27.4-50.2,53.8-79.1,75-5.8,4.3-13.7,8.3-20.7,4.9-21.3-11.6-39.2-30.5-57.8-47.8-21.6-20.8-43.2-45-59.6-70.3-2.4-3.6-3.1-7.9-3-12.6,2.1-8.7,7.9-15.9,13.3-23.3,19.3-25.6,43-49.9,66.9-72.1a27.15,27.15,0,0,1,2.4-2.4c10.3-9.3,20.5-17.4,31.3-25.5Z"/></svg>